<?xml version="1.0" encoding="UTF-8"?>
<!DOCTYPE svg PUBLIC "-//W3C//DTD SVG 1.1//EN" "http://www.w3.org/Graphics/SVG/1.1/DTD/svg11.dtd">
<!-- Creator: CorelDRAW -->
<svg xmlns="http://www.w3.org/2000/svg" xml:space="preserve" width="200mm" height="63.4143mm" style="shape-rendering:geometricPrecision; text-rendering:geometricPrecision; image-rendering:optimizeQuality; fill-rule:evenodd; clip-rule:evenodd"
viewBox="0 0 189.53 60.0947"
 xmlns:xlink="http://www.w3.org/1999/xlink">
 <defs>
  <style type="text/css">
   <![CDATA[
    .fil1 {fill:none}
    .fil0 {fill:#0094E2;fill-rule:nonzero}
    .fil2 {fill:#F53F26;fill-rule:nonzero}
   ]]>
  </style>
 </defs>
 <g id="Layer_x0020_1">
  <metadata id="CorelCorpID_0Corel-Layer"/>
  <path class="fil0" d="M80.2339 18.2466l-18.0812 0 0 3.47314 17.0338 0 0 4.82554 -17.0338 0 0 3.51001 18.3598 0 0 5.55172 -25.3586 0 0 -22.9542 25.08 0 0 5.5938zm26.2583 2.68375l0 -0.231417c0,-0.894773 -0.294625,-1.54714 -0.889276,-1.96287 -0.589439,-0.415924 -1.52572,-0.626208 -2.80988,-0.626208l-5.61503 0c-2.40457,0 -3.9465,0.289413 -4.6307,0.873356 -0.68392,0.579015 -1.02602,1.79447 -1.02602,3.64173l0 3.19415c0,1.65233 0.378871,2.78894 1.14192,3.40482 0.757742,0.6155 2.2629,0.926045 4.5148,0.926045l4.0731 0c2.23134,0 3.68873,-0.220992 4.38336,-0.668284 0.694629,-0.447197 1.04194,-1.27886 1.04194,-2.4891l0 -0.247337 7.10947 0c0,0.0315568 0.00521208,0.0894583 0.0159205,0.168492 0.0315568,0.668284 0.0471931,1.16827 0.0471931,1.49445 0,1.4735 -0.184223,2.68375 -0.557883,3.64145 -0.368163,0.952485 -0.947178,1.72094 -1.74178,2.29445 -0.752625,0.557883 -1.74709,0.952485 -2.9996,1.1894 -1.24701,0.236629 -3.07835,0.352526 -5.49363,0.352526l-7.83537 0c-2.39443,0 -4.15744,-0.126322 -5.28856,-0.384083 -1.12628,-0.25814 -2.09459,-0.694629 -2.89441,-1.31051 -0.92614,-0.731398 -1.59964,-1.62589 -2.02049,-2.68896 -0.420947,-1.06829 -0.631515,-2.41007 -0.631515,-4.03103l0 -6.26208c0,-3.28892 0.778875,-5.58337 2.34146,-6.88317 1.56306,-1.2997 4.39407,-1.95235 8.49352,-1.95235l7.83537 0c2.51526,0 4.37294,0.110686 5.56205,0.33689 1.19461,0.226204 2.13658,0.610382 2.82599,1.14192 0.726186,0.557883 1.26294,1.30492 1.61025,2.24688 0.342102,0.936848 0.515712,2.11554 0.515712,3.53635 0,0.33689 -0.00521208,0.599864 -0.00521208,0.778875 -0.00530685,0.178727 -0.0211326,0.352526 -0.0420757,0.515617l-7.03063 0zm22.1226 14.9556c-2.67863,0 -4.64141,-0.12111 -5.88852,-0.363235 -1.2418,-0.241935 -2.25219,-0.652363 -3.03628,-1.2418 -0.878852,-0.65786 -1.52079,-1.51558 -1.91018,-2.57866 -0.38958,-1.06829 -0.584227,-2.47839 -0.584227,-4.2361l0 -6.25687c0,-1.9208 0.194648,-3.4468 0.584227,-4.56256 0.38939,-1.12079 1.03133,-2.01006 1.91018,-2.66792 0.773663,-0.578731 1.79969,-0.989254 3.07854,-1.23659 1.27838,-0.247337 3.21519,-0.368447 5.8147,-0.368447l8.25111 0c2.61021,0 4.55735,0.12111 5.85165,0.368447 1.28909,0.247337 2.3153,0.65786 3.07314,1.23659 0.852507,0.647151 1.47872,1.53122 1.87332,2.65219 0.394792,1.12079 0.594651,2.55231 0.594651,4.29931l0 6.39911c0,1.76813 -0.19986,3.20458 -0.594651,4.30973 -0.394602,1.10506 -1.02081,1.98391 -1.87332,2.64177 -0.768261,0.589439 -1.78926,0.999867 -3.05229,1.2418 -1.26275,0.242125 -3.22031,0.363235 -5.8725,0.363235l-8.21955 0zm1.89966 -5.73604l4.45178 0c2.47868,0 4.12048,-0.310545 4.93603,-0.931257 0.810432,-0.621091 1.21565,-1.77884 1.21565,-3.46272l0 -3.25215c0,-1.68388 -0.405216,-2.84163 -1.21565,-3.46272 -0.815549,-0.620712 -2.45736,-0.931257 -4.93603,-0.931257l-4.48334 0c-2.53118,0 -4.1889,0.315758 -4.9728,0.941966 -0.784182,0.626019 -1.17897,1.81542 -1.17897,3.57312l0 3.19415c0,1.65233 0.415735,2.78894 1.24209,3.40482 0.826163,0.6155 2.47328,0.926045 4.94125,0.926045zm28.7686 5.45705l-6.81475 0 0 -22.9542 10.3456 0 8.188 14.3346 8.32512 -14.3346 10.2033 0 0 22.9542 -6.78301 0 0 -16.3552 -9.48249 16.3552 -4.57801 0 -9.40374 -16.3552 0 16.3552z"/>
  <polyline class="fil1" points="0,42.8854 7.35387,42.8854 11.0308,28.2577 14.7078,42.8854 22.0616,42.8854 29.4153,2.41452 38.5639,57.6765 44.1057,22.7158 47.8001,42.8853 189.53,42.8854 "/>
  <path class="fil2" d="M0 40.461l5.467 0 3.2151 -12.7905c0.324192,-1.29705 1.63877,-2.08569 2.93583,-1.7615 0.915052,0.228763 1.57727,0.950684 1.774,1.81134l3.20278 12.7406 3.45296 0 6.99064 -38.4727c0.235302,-1.31269 1.49047,-2.18614 2.80315,-1.95084 1.03569,0.185645 1.79807,1.00631 1.95804,1.98912l0.00227436 -0.000379061 6.71108 40.5383 3.20638 -20.2275c0.209147,-1.31799 1.44725,-2.21684 2.76525,-2.00769 1.05587,0.167545 1.84271,0.995698 2.00646,1.99604l3.3236 18.1451 139.716 9.47652e-005 0 4.8298 -141.642 -9.47652e-005c-1.18068,0.0445396 -2.24612,-0.783045 -2.46532,-1.97927l-1.14562 -6.25469 -3.31053 20.8845c-0.119215,1.04896 -0.921497,1.93444 -2.0148,2.11222 -1.31799,0.214359 -2.56037,-0.680224 -2.77472,-1.99822l-6.87436 -41.5246 -4.82696 26.5648c-0.11097,1.23602 -1.1496,2.20481 -2.41452,2.20481l-7.35378 0 0 -0.00322202c-1.08535,0.000663356 -2.07356,-0.733482 -2.34866,-1.83399l-1.32832 -5.2843 -1.29572 5.15447c-0.213885,1.12022 -1.19868,1.96704 -2.38126,1.96704l-7.35387 0 0 -4.84875z"/>
 </g>
</svg>
