<?xml version="1.0" encoding="UTF-8" standalone="no"?>
<!DOCTYPE svg PUBLIC "-//W3C//DTD SVG 1.1//EN" "http://www.w3.org/Graphics/SVG/1.1/DTD/svg11.dtd">
<svg width="100%" height="100%" viewBox="0 0 2383 280" version="1.1" xmlns="http://www.w3.org/2000/svg" xmlns:xlink="http://www.w3.org/1999/xlink" xml:space="preserve" xmlns:serif="http://www.serif.com/" style="fill-rule:evenodd;clip-rule:evenodd;stroke-linejoin:round;stroke-miterlimit:2;">
    <g transform="matrix(1,0,0,1,-3.10698,-40.3415)">
        <g transform="matrix(33.3331,0,0,33.3331,-6703.84,-4936.06)">
            <g transform="matrix(12,0,0,12,200.95,157.692)">
                <path d="M0.557,-0.259C0.585,-0.421 0.564,-0.554 0.498,-0.633C0.463,-0.675 0.413,-0.7 0.358,-0.7C0.204,-0.7 0.071,-0.556 0.034,-0.35C0.013,-0.232 0.019,-0.123 0.049,-0.058C0.063,-0.029 0.088,-0.001 0.123,-0C0.148,-0.001 0.176,-0.018 0.204,-0.049C0.161,-0.093 0.144,-0.153 0.135,-0.186C0.133,-0.193 0.131,-0.199 0.13,-0.204L0.139,-0.207C0.141,-0.202 0.143,-0.196 0.145,-0.189C0.16,-0.132 0.197,-0 0.354,-0C0.486,-0 0.538,-0.151 0.557,-0.259ZM0.259,-0.242C0.26,-0.243 0.333,-0.36 0.352,-0.51L0.362,-0.509C0.343,-0.356 0.269,-0.238 0.268,-0.236L0.259,-0.242Z" style="fill:rgb(53,147,255);fill-rule:nonzero;"/>
            </g>
            <g transform="matrix(12,0,0,12,207.982,157.692)">
                <path d="M0.124,-0C0.208,-0 0.304,-0.157 0.338,-0.349C0.363,-0.49 0.349,-0.616 0.303,-0.671C0.287,-0.69 0.268,-0.7 0.246,-0.7C0.162,-0.7 0.066,-0.543 0.032,-0.351C0.007,-0.21 0.021,-0.084 0.068,-0.029C0.084,-0.01 0.103,-0 0.124,-0Z" style="fill:rgb(53,147,255);fill-rule:nonzero;"/>
            </g>
            <g transform="matrix(12,0,0,12,212.314,157.692)">
                <path d="M0.222,-0C0.368,-0 0.483,-0.095 0.508,-0.236C0.52,-0.303 0.507,-0.361 0.472,-0.403C0.436,-0.446 0.377,-0.469 0.306,-0.469L0.306,-0.479C0.375,-0.479 0.434,-0.458 0.472,-0.418C0.521,-0.449 0.553,-0.49 0.56,-0.534C0.565,-0.56 0.562,-0.585 0.55,-0.608C0.515,-0.677 0.418,-0.7 0.347,-0.7C0.229,-0.7 0.092,-0.64 0.063,-0.474C0.054,-0.42 0.063,-0.376 0.091,-0.343C0.125,-0.301 0.189,-0.279 0.271,-0.279C0.336,-0.279 0.381,-0.295 0.382,-0.295L0.385,-0.285C0.383,-0.285 0.338,-0.269 0.271,-0.269C0.206,-0.269 0.152,-0.283 0.114,-0.309C0.058,-0.278 0.02,-0.227 0.01,-0.172C0.004,-0.14 0.007,-0.112 0.018,-0.088C0.052,-0.018 0.153,-0 0.222,-0Z" style="fill:rgb(53,147,255);fill-rule:nonzero;"/>
            </g>
            <g transform="matrix(12,0,0,12,219.154,157.692)">
                <path d="M0.435,-0.351C0.443,-0.396 0.447,-0.441 0.447,-0.482L0.457,-0.482C0.457,-0.426 0.45,-0.37 0.438,-0.316C0.5,-0.325 0.56,-0.408 0.578,-0.508C0.585,-0.549 0.582,-0.582 0.57,-0.609C0.534,-0.688 0.42,-0.7 0.345,-0.7C0.118,-0.7 0.052,-0.595 0.037,-0.506C0.025,-0.439 0.036,-0.376 0.064,-0.341C0.079,-0.324 0.098,-0.315 0.118,-0.315C0.183,-0.315 0.25,-0.401 0.269,-0.508L0.279,-0.506C0.261,-0.402 0.196,-0.316 0.132,-0.306C0.116,-0.18 0.132,-0.072 0.174,-0.025C0.188,-0.009 0.204,-0 0.225,-0C0.307,-0.001 0.401,-0.158 0.435,-0.351Z" style="fill:rgb(53,147,255);fill-rule:nonzero;"/>
            </g>
            <g transform="matrix(12,0,0,12,225.934,157.692)">
                <path d="M0.546,-0.195C0.549,-0.256 0.53,-0.313 0.494,-0.35C0.47,-0.376 0.439,-0.39 0.406,-0.39C0.384,-0.39 0.362,-0.383 0.342,-0.371L0.337,-0.379C0.359,-0.393 0.382,-0.4 0.406,-0.4C0.436,-0.4 0.463,-0.389 0.487,-0.37C0.541,-0.408 0.574,-0.456 0.584,-0.511C0.589,-0.544 0.586,-0.575 0.574,-0.603C0.544,-0.672 0.466,-0.7 0.394,-0.7C0.205,-0.7 0.074,-0.572 0.034,-0.349C0.014,-0.236 0.019,-0.132 0.046,-0.067C0.059,-0.034 0.084,-0.001 0.123,-0C0.199,-0.002 0.277,-0.11 0.315,-0.27L0.325,-0.267C0.31,-0.204 0.288,-0.148 0.263,-0.104C0.286,-0.04 0.334,-0 0.389,-0C0.423,-0 0.455,-0.015 0.481,-0.04C0.518,-0.075 0.544,-0.132 0.546,-0.195ZM0.312,-0.433L0.302,-0.434C0.314,-0.534 0.363,-0.611 0.363,-0.612L0.372,-0.607C0.372,-0.606 0.324,-0.53 0.312,-0.433L0.312,-0.433Z" style="fill:rgb(53,147,255);fill-rule:nonzero;"/>
            </g>
            <g transform="matrix(12,0,0,12,233.11,157.692)">
                <path d="M0.124,-0C0.208,-0 0.304,-0.157 0.338,-0.349C0.363,-0.49 0.349,-0.616 0.303,-0.671C0.287,-0.69 0.268,-0.7 0.246,-0.7C0.162,-0.7 0.066,-0.543 0.032,-0.351C0.007,-0.21 0.021,-0.084 0.068,-0.029C0.084,-0.01 0.103,-0 0.124,-0Z" style="fill:rgb(53,147,255);fill-rule:nonzero;"/>
            </g>
            <g transform="matrix(12,0,0,12,237.562,157.692)">
                <path d="M0.572,-0.213C0.583,-0.273 0.57,-0.331 0.536,-0.371C0.507,-0.406 0.465,-0.425 0.417,-0.425L0.417,-0.435C0.449,-0.435 0.48,-0.426 0.505,-0.411C0.549,-0.443 0.578,-0.486 0.586,-0.531C0.591,-0.559 0.589,-0.585 0.58,-0.608C0.549,-0.679 0.465,-0.7 0.393,-0.7C0.134,-0.7 0.056,-0.48 0.033,-0.349C0.014,-0.239 0.018,-0.138 0.042,-0.072C0.055,-0.038 0.081,-0.001 0.122,-0C0.147,-0.001 0.175,-0.018 0.203,-0.049C0.16,-0.093 0.143,-0.153 0.134,-0.186C0.132,-0.193 0.13,-0.199 0.129,-0.204L0.138,-0.207C0.14,-0.202 0.142,-0.196 0.144,-0.189C0.159,-0.132 0.196,-0 0.353,-0C0.471,-0 0.553,-0.105 0.572,-0.213ZM0.334,-0.451L0.326,-0.457C0.326,-0.457 0.374,-0.533 0.385,-0.631L0.395,-0.629C0.383,-0.529 0.335,-0.452 0.334,-0.451ZM0.284,-0.138L0.275,-0.144C0.276,-0.145 0.323,-0.22 0.335,-0.318L0.345,-0.317C0.333,-0.217 0.284,-0.139 0.284,-0.138Z" style="fill:rgb(53,147,255);fill-rule:nonzero;"/>
            </g>
            <g transform="matrix(12,0,0,12,244.834,157.692)">
                <path d="M0.028,-0.297C0.012,-0.204 0.028,-0.121 0.075,-0.066C0.111,-0.022 0.165,-0 0.221,-0C0.362,-0 0.49,-0.129 0.52,-0.299C0.548,-0.458 0.543,-0.594 0.509,-0.66C0.498,-0.681 0.479,-0.699 0.455,-0.7C0.38,-0.697 0.287,-0.508 0.246,-0.277L0.236,-0.278C0.254,-0.378 0.28,-0.469 0.312,-0.541C0.303,-0.64 0.275,-0.7 0.236,-0.7C0.229,-0.7 0.223,-0.699 0.217,-0.697C0.145,-0.671 0.065,-0.505 0.028,-0.297Z" style="fill:rgb(53,147,255);fill-rule:nonzero;"/>
            </g>
            <g transform="matrix(12,0,0,12,251.566,157.692)">
                <path d="M0.435,-0.351C0.443,-0.396 0.447,-0.441 0.447,-0.482L0.457,-0.482C0.457,-0.426 0.45,-0.37 0.438,-0.316C0.5,-0.325 0.56,-0.408 0.578,-0.508C0.585,-0.549 0.582,-0.582 0.57,-0.609C0.534,-0.688 0.42,-0.7 0.345,-0.7C0.118,-0.7 0.052,-0.595 0.037,-0.506C0.025,-0.439 0.036,-0.376 0.064,-0.341C0.079,-0.324 0.098,-0.315 0.118,-0.315C0.183,-0.315 0.25,-0.401 0.269,-0.508L0.279,-0.506C0.261,-0.402 0.196,-0.316 0.132,-0.306C0.116,-0.18 0.132,-0.072 0.174,-0.025C0.188,-0.009 0.204,-0 0.225,-0C0.307,-0.001 0.401,-0.158 0.435,-0.351Z" style="fill:rgb(53,147,255);fill-rule:nonzero;"/>
            </g>
            <g transform="matrix(12,0,0,12,258.586,157.692)">
                <path d="M0.505,-0.629C0.467,-0.675 0.414,-0.7 0.355,-0.7C0.206,-0.7 0.057,-0.542 0.023,-0.349C0.004,-0.239 0.025,-0.137 0.081,-0.071C0.119,-0.025 0.171,-0 0.231,-0C0.38,-0 0.529,-0.158 0.563,-0.351C0.582,-0.461 0.561,-0.563 0.505,-0.629ZM0.234,-0.161L0.224,-0.162C0.249,-0.375 0.353,-0.54 0.354,-0.541L0.363,-0.536C0.362,-0.534 0.259,-0.371 0.234,-0.161Z" style="fill:rgb(53,147,255);fill-rule:nonzero;"/>
            </g>
            <g transform="matrix(12,0,0,12,265.642,157.692)">
                <path d="M0.546,-0.195C0.549,-0.256 0.53,-0.313 0.494,-0.35C0.47,-0.376 0.439,-0.39 0.406,-0.39C0.384,-0.39 0.362,-0.383 0.342,-0.371L0.337,-0.379C0.359,-0.393 0.382,-0.4 0.406,-0.4C0.436,-0.4 0.463,-0.389 0.487,-0.37C0.541,-0.408 0.574,-0.456 0.584,-0.511C0.589,-0.544 0.586,-0.575 0.574,-0.603C0.544,-0.672 0.466,-0.7 0.394,-0.7C0.205,-0.7 0.074,-0.572 0.034,-0.349C0.014,-0.236 0.019,-0.132 0.046,-0.067C0.059,-0.034 0.084,-0.001 0.123,-0C0.199,-0.002 0.277,-0.11 0.315,-0.27L0.325,-0.267C0.31,-0.204 0.288,-0.148 0.263,-0.104C0.286,-0.04 0.334,-0 0.389,-0C0.423,-0 0.455,-0.015 0.481,-0.04C0.518,-0.075 0.544,-0.132 0.546,-0.195ZM0.312,-0.433L0.302,-0.434C0.314,-0.534 0.363,-0.611 0.363,-0.612L0.372,-0.607C0.372,-0.606 0.324,-0.53 0.312,-0.433L0.312,-0.433Z" style="fill:rgb(53,147,255);fill-rule:nonzero;"/>
            </g>
        </g>
    </g>
</svg>
